<svg width="329" height="173" viewBox="0 0 329 173" fill="none" xmlns="http://www.w3.org/2000/svg">
<path d="M37.9515 45.1958C48.4057 45.1958 57.3445 48.9075 64.7679 56.3309C72.1913 63.7543 75.903 72.6931 75.903 83.1473V113.126C75.903 115.367 75.1124 117.233 73.531 118.727C71.9497 120.308 70.0829 121.099 67.9305 121.099H67.7329C65.5806 121.099 63.7137 120.308 62.1324 118.727C60.5511 117.233 59.7604 115.367 59.7604 113.126C54.753 118.441 47.4833 121.099 37.9515 121.099C27.4973 121.099 18.5585 117.387 11.1351 109.964C3.71169 102.54 0 93.6015 0 83.1473C0 72.6931 3.71169 63.7543 11.1351 56.3309C18.5585 48.9075 27.4973 45.1958 37.9515 45.1958ZM37.9515 61.3384C31.8898 61.3384 26.7286 63.4687 22.4678 67.7295C18.251 71.9903 16.1426 77.1295 16.1426 83.1473C16.1426 89.209 18.251 94.3702 22.4678 98.631C26.7286 102.848 31.8898 104.956 37.9515 104.956C44.0132 104.956 49.1525 102.848 53.3693 98.631C57.6301 94.3702 59.7604 89.209 59.7604 83.1473C59.7604 77.1295 57.6301 71.9903 53.3693 67.7295C49.1085 63.4687 43.9693 61.3384 37.9515 61.3384Z" fill="white"/>
<path d="M115.146 45.1958C117.342 45.1958 119.231 45.9865 120.812 47.5678C122.35 49.1491 123.118 51.0379 123.118 53.2341V53.3659C123.118 55.5622 122.35 57.429 120.812 58.9664C119.231 60.5477 117.342 61.3384 115.146 61.3384H111.39C107.788 61.3384 104.736 62.5902 102.232 65.094C99.772 67.5977 98.5202 70.6505 98.4762 74.2524V113.126C98.4762 115.367 97.6856 117.233 96.1043 118.727C94.523 120.308 92.6561 121.099 90.5038 121.099H90.3061C88.1538 121.099 86.287 120.308 84.7056 118.727C83.1243 117.233 82.3337 115.367 82.3337 113.126V74.2524C82.4215 66.2141 85.2547 59.3617 90.8332 53.6954C96.4996 48.029 103.352 45.1958 111.39 45.1958H115.146Z" fill="white"/>
<path d="M159.66 45.1958C163.613 45.1958 167.435 45.7888 171.124 46.9748C174.858 48.1608 176.725 50.7084 176.725 54.6178V54.9472C176.725 57.6267 175.649 59.7571 173.496 61.3384C172.003 62.3926 170.465 62.9197 168.884 62.9197C168.05 62.9197 167.193 62.7879 166.315 62.5244C164.162 61.8215 161.944 61.4701 159.66 61.4701C153.598 61.4701 148.437 63.6005 144.176 67.8613C139.959 72.122 137.851 77.2833 137.851 83.345C137.851 89.3627 139.959 94.502 144.176 98.7628C148.437 103.024 153.598 105.154 159.66 105.154C161.944 105.154 164.162 104.803 166.315 104.1C167.149 103.836 167.984 103.704 168.818 103.704C170.444 103.704 172.003 104.231 173.496 105.286C175.649 106.867 176.725 109.019 176.725 111.743C176.725 115.608 174.858 118.156 171.124 119.386C167.435 120.528 163.613 121.099 159.66 121.099C149.206 121.099 140.267 117.387 132.843 109.964C125.42 102.54 121.708 93.6015 121.708 83.1473C121.708 72.6931 125.42 63.7543 132.843 56.3309C140.267 48.9075 149.206 45.1958 159.66 45.1958Z" fill="white"/>
<path d="M235.057 92.2855C235.057 92.5952 234.946 92.8616 234.723 93.0846C234.5 93.3076 234.234 93.4191 233.924 93.4191H233.868C233.558 93.4191 233.292 93.3076 233.069 93.0846C232.846 92.8616 232.734 92.5952 232.734 92.2855V82.0644C232.734 79.9087 233.496 78.0627 235.02 76.5264C236.544 75.0025 238.39 74.2406 240.558 74.2406C243.135 74.2406 245.359 75.4671 247.23 77.9202C249.088 75.4671 251.306 74.2406 253.883 74.2406C256.051 74.2406 257.897 75.0025 259.421 76.5264C260.945 78.0627 261.707 79.9087 261.707 82.0644V92.2855C261.707 92.6076 261.601 92.874 261.391 93.0846C261.168 93.3076 260.895 93.4191 260.573 93.4191H260.536C260.226 93.4191 259.96 93.3076 259.737 93.0846C259.514 92.8616 259.402 92.5952 259.402 92.2855V82.0644C259.402 80.5529 258.863 79.2582 257.785 78.1804C256.708 77.1025 255.407 76.5636 253.883 76.5636C252.371 76.5636 251.077 77.1025 249.999 78.1804C248.921 79.2582 248.382 80.5529 248.382 82.0644V92.2855C248.382 92.5952 248.271 92.8616 248.048 93.0846C247.825 93.3076 247.558 93.4191 247.248 93.4191H247.211C246.889 93.4191 246.617 93.3076 246.394 93.0846C246.171 92.8616 246.059 92.5952 246.059 92.2855V82.0644C246.059 80.5529 245.52 79.2582 244.442 78.1804C243.364 77.1025 242.07 76.5636 240.558 76.5636C239.047 76.5636 237.752 77.1025 236.674 78.1804C235.596 79.2582 235.057 80.5529 235.057 82.0644V92.2855Z" fill="white"/>
<path d="M272.571 76.6007C270.564 76.6007 268.848 77.3131 267.423 78.7379C266.011 80.1626 265.304 81.8786 265.304 83.8856C265.304 84.2449 265.366 84.8458 265.49 85.6882L278.592 79.76C276.833 77.6538 274.826 76.6007 272.571 76.6007ZM281.287 79.8529C281.423 80.1379 281.435 80.429 281.324 80.7264C281.212 81.0113 281.014 81.2219 280.729 81.3582C278.995 82.1387 276.715 83.167 273.89 84.4431C270.384 86.0289 267.894 87.1502 266.42 87.8068C268.154 90.0368 270.204 91.1519 272.571 91.1519C274.144 91.1519 275.569 90.6873 276.845 89.7581C278.072 88.8661 278.933 87.7015 279.428 86.2643C279.614 85.744 279.986 85.4838 280.543 85.4838C280.94 85.4838 281.256 85.6449 281.491 85.967C281.714 86.2891 281.757 86.636 281.621 87.0077C280.964 88.9032 279.818 90.4395 278.183 91.6165C276.498 92.8182 274.627 93.4191 272.571 93.4191C269.919 93.4191 267.658 92.4837 265.788 90.6129C263.917 88.7422 262.982 86.4811 262.982 83.8298C262.982 81.1786 263.917 78.9175 265.788 77.0468C267.658 75.176 269.919 74.2406 272.571 74.2406C274.479 74.2406 276.226 74.761 277.811 75.8016C279.36 76.8176 280.518 78.168 281.287 79.8529Z" fill="white"/>
<path d="M292.188 76.6007C290.181 76.6007 288.465 77.3131 287.04 78.7379C285.628 80.1626 284.922 81.8786 284.922 83.8856C284.922 85.8803 285.628 87.59 287.04 89.0147C288.465 90.4395 290.181 91.1519 292.188 91.1519C294.207 91.1519 295.917 90.4395 297.317 89.0147C298.742 87.59 299.454 85.8803 299.454 83.8856C299.454 81.8786 298.742 80.1626 297.317 78.7379C295.917 77.3131 294.207 76.6007 292.188 76.6007ZM300.643 66.6212C300.953 66.6212 301.22 66.7266 301.443 66.9372C301.666 67.1602 301.777 67.4327 301.777 67.7549V83.8856C301.765 86.5121 300.823 88.7608 298.952 90.6315C297.082 92.4899 294.827 93.4191 292.188 93.4191C289.537 93.4191 287.275 92.4837 285.405 90.6129C283.534 88.7422 282.599 86.4811 282.599 83.8298C282.599 81.1786 283.534 78.9175 285.405 77.0468C287.275 75.176 289.537 74.2406 292.188 74.2406C294.604 74.2406 297.026 75.3185 299.454 77.4742V67.7549C299.454 67.4327 299.566 67.1602 299.789 66.9372C300.012 66.7266 300.278 66.6212 300.588 66.6212H300.643Z" fill="white"/>
<path d="M305.468 74.2406C305.778 74.2406 306.044 74.3521 306.267 74.5751C306.49 74.7981 306.601 75.0707 306.601 75.3928V92.2855C306.601 92.5952 306.49 92.8616 306.267 93.0846C306.044 93.3076 305.778 93.4191 305.468 93.4191H305.431C305.109 93.4191 304.836 93.3076 304.613 93.0846C304.39 92.8616 304.278 92.5952 304.278 92.2855V75.3928C304.278 75.0707 304.39 74.7981 304.613 74.5751C304.836 74.3521 305.109 74.2406 305.431 74.2406H305.468ZM305.449 69.5947C305.028 69.5947 304.675 69.4522 304.39 69.1672C304.105 68.8823 303.963 68.5292 303.963 68.108C303.963 67.6991 304.105 67.3522 304.39 67.0673C304.675 66.7823 305.028 66.6398 305.449 66.6398C305.858 66.6398 306.205 66.7823 306.49 67.0673C306.787 67.3646 306.936 67.7115 306.936 68.108C306.936 68.5168 306.787 68.8699 306.49 69.1672C306.205 69.4522 305.858 69.5947 305.449 69.5947Z" fill="white"/>
<path d="M318.711 74.2406C321.362 74.2406 323.623 75.176 325.494 77.0468C327.364 78.9175 328.3 81.1786 328.3 83.8298V92.2855C328.3 92.5952 328.188 92.8616 327.965 93.0846C327.742 93.3076 327.476 93.4191 327.166 93.4191H327.11C326.801 93.4191 326.534 93.3076 326.311 93.0846C326.088 92.8616 325.977 92.5952 325.977 92.2855V90.1855C323.549 92.3412 321.127 93.4191 318.711 93.4191C316.059 93.4191 313.798 92.4837 311.928 90.6129C310.057 88.7422 309.121 86.4811 309.121 83.8298C309.121 81.1786 310.057 78.9175 311.928 77.0468C313.798 75.176 316.059 74.2406 318.711 74.2406ZM318.711 76.5636C316.704 76.5636 314.988 77.276 313.563 78.7007C312.151 80.1255 311.444 81.8352 311.444 83.8298C311.444 85.8369 312.151 87.5528 313.563 88.9776C314.988 90.3899 316.704 91.0961 318.711 91.0961C320.718 91.0961 322.427 90.3899 323.84 88.9776C325.264 87.5528 325.977 85.8369 325.977 83.8298C325.977 81.8352 325.264 80.1255 323.84 78.7007C322.44 77.276 320.73 76.5636 318.711 76.5636Z" fill="white"/>
<path d="M155.83 85.5953C155.83 87.1068 156.369 88.4014 157.447 89.4793C158.524 90.5572 159.819 91.0961 161.331 91.0961C162.842 91.0961 164.137 90.5572 165.215 89.4793C166.292 88.4014 166.831 87.1068 166.831 85.5953V75.3928C166.831 75.0707 166.943 74.7981 167.166 74.5751C167.389 74.3521 167.661 74.2406 167.984 74.2406H168.021C168.33 74.2406 168.597 74.3521 168.82 74.5751C169.043 74.7981 169.154 75.0707 169.154 75.3928V85.5953C169.154 87.1068 169.693 88.4014 170.771 89.4793C171.849 90.5572 173.144 91.0961 174.655 91.0961C176.179 91.0961 177.48 90.5572 178.558 89.4793C179.636 88.4014 180.175 87.1068 180.175 85.5953V75.3928C180.175 75.0707 180.286 74.7981 180.509 74.5751C180.732 74.3521 180.998 74.2406 181.308 74.2406H181.345C181.667 74.2406 181.94 74.3521 182.163 74.5751C182.374 74.7981 182.479 75.0707 182.479 75.3928V85.5953C182.479 87.7634 181.717 89.6094 180.193 91.1333C178.669 92.6571 176.823 93.4191 174.655 93.4191C172.078 93.4191 169.861 92.2049 168.002 89.7766C166.131 92.2049 163.908 93.4191 161.331 93.4191C159.162 93.4191 157.316 92.6571 155.793 91.1333C154.269 89.6094 153.507 87.7634 153.507 85.5953V75.3928C153.507 75.0707 153.618 74.7981 153.841 74.5751C154.064 74.3521 154.331 74.2406 154.64 74.2406H154.696C155.006 74.2406 155.272 74.3521 155.495 74.5751C155.718 74.7981 155.83 75.0707 155.83 75.3928V85.5953Z" fill="white"/>
<path d="M193.343 76.6007C191.336 76.6007 189.62 77.3131 188.195 78.7379C186.783 80.1626 186.077 81.8785 186.077 83.8856C186.077 84.2449 186.139 84.8457 186.263 85.6882L199.364 79.76C197.605 77.6538 195.598 76.6007 193.343 76.6007ZM202.059 79.8529C202.195 80.1378 202.207 80.429 202.096 80.7263C201.984 81.0113 201.786 81.2219 201.501 81.3582C199.767 82.1387 197.487 83.167 194.662 84.4431C191.156 86.0289 188.666 87.1501 187.192 87.8068C188.926 90.0368 190.977 91.1518 193.343 91.1518C194.916 91.1518 196.341 90.6872 197.617 89.7581C198.844 88.866 199.705 87.7014 200.2 86.2643C200.386 85.7439 200.758 85.4838 201.315 85.4838C201.712 85.4838 202.028 85.6448 202.263 85.967C202.486 86.2891 202.53 86.636 202.393 87.0076C201.737 88.9032 200.591 90.4395 198.955 91.6164C197.27 92.8182 195.4 93.4191 193.343 93.4191C190.692 93.4191 188.431 92.4837 186.56 90.6129C184.689 88.7421 183.754 86.4811 183.754 83.8298C183.754 81.1785 184.689 78.9175 186.56 77.0467C188.431 75.176 190.692 74.2406 193.343 74.2406C195.251 74.2406 196.998 74.7609 198.584 75.8016C200.132 76.8175 201.291 78.168 202.059 79.8529Z" fill="white"/>
<path d="M213.518 76.6007C211.511 76.6007 209.795 77.3131 208.37 78.7379C206.958 80.1626 206.251 81.8785 206.251 83.8856C206.251 85.8802 206.958 87.5899 208.37 89.0147C209.795 90.4395 211.511 91.1518 213.518 91.1518C215.537 91.1518 217.247 90.4395 218.647 89.0147C220.071 87.5899 220.784 85.8802 220.784 83.8856C220.784 81.8785 220.071 80.1626 218.647 78.7379C217.247 77.3131 215.537 76.6007 213.518 76.6007ZM205.118 66.6212C205.427 66.6212 205.694 66.7265 205.917 66.9371C206.14 67.1601 206.251 67.4327 206.251 67.7548V77.4742C208.667 75.3184 211.089 74.2406 213.518 74.2406C216.169 74.2406 218.43 75.176 220.301 77.0467C222.171 78.9175 223.107 81.1785 223.107 83.8298C223.107 86.4811 222.171 88.7421 220.301 90.6129C218.43 92.4837 216.169 93.4191 213.518 93.4191C210.866 93.4191 208.611 92.4899 206.753 90.6315C204.882 88.7607 203.941 86.5121 203.928 83.8856V67.7548C203.928 67.4327 204.04 67.1601 204.263 66.9371C204.486 66.7265 204.752 66.6212 205.062 66.6212H205.118Z" fill="white"/>
<path d="M190.171 103.258C189.396 103.258 188.739 103.529 188.198 104.069C187.657 104.61 187.387 105.268 187.387 106.043C187.387 106.962 187.806 107.66 188.644 108.137C189.014 108.345 190.099 108.71 191.901 109.232C193.442 109.692 194.568 110.246 195.28 110.895C196.343 111.859 196.875 113.215 196.875 114.963C196.875 116.657 196.271 118.103 195.064 119.301C193.866 120.5 192.424 121.099 190.739 121.099H185.59C185.148 121.099 184.765 120.937 184.441 120.612C184.116 120.288 183.954 119.905 183.954 119.463V119.382C183.954 118.941 184.116 118.558 184.441 118.234C184.765 117.909 185.148 117.747 185.59 117.747H190.874C191.64 117.747 192.298 117.477 192.847 116.936C193.388 116.395 193.658 115.738 193.658 114.963C193.658 114.062 193.239 113.359 192.401 112.854C192.005 112.62 190.915 112.224 189.131 111.665C187.59 111.16 186.468 110.588 185.765 109.949C184.702 108.993 184.17 107.691 184.17 106.043C184.17 104.349 184.77 102.902 185.968 101.704C187.166 100.506 188.613 99.9065 190.307 99.9065H193.942C194.393 99.9065 194.78 100.069 195.105 100.393C195.42 100.708 195.578 101.091 195.578 101.542V101.623C195.578 102.064 195.42 102.447 195.105 102.772C194.78 103.096 194.393 103.258 193.942 103.258H190.171Z" fill="white"/>
<path d="M209.735 99.9876C212.645 99.9876 215.136 101.019 217.209 103.083C219.272 105.146 220.304 107.633 220.304 110.543C220.304 113.454 219.272 115.94 217.209 118.004C215.136 120.067 212.645 121.099 209.735 121.099C206.824 121.099 204.338 120.067 202.274 118.004C200.211 115.94 199.179 113.454 199.179 110.543C199.179 107.633 200.211 105.146 202.274 103.083C204.338 101.019 206.824 99.9876 209.735 99.9876ZM209.735 103.285C207.734 103.285 206.027 103.993 204.612 105.407C203.198 106.822 202.49 108.534 202.49 110.543C202.49 112.553 203.198 114.264 204.612 115.679C206.027 117.085 207.734 117.788 209.735 117.788C211.744 117.788 213.456 117.085 214.871 115.679C216.285 114.264 216.993 112.553 216.993 110.543C216.993 108.534 216.285 106.822 214.871 105.407C213.456 103.993 211.744 103.285 209.735 103.285Z" fill="white"/>
<path d="M226.609 116.166C226.609 116.616 226.766 116.999 227.082 117.314C227.397 117.63 227.78 117.788 228.23 117.788H232.163C232.614 117.788 233.001 117.95 233.326 118.274C233.65 118.598 233.812 118.986 233.812 119.436V119.463C233.812 119.923 233.65 120.306 233.326 120.612C233.001 120.937 232.614 121.099 232.163 121.099H228.23C226.87 121.099 225.708 120.617 224.743 119.653C223.779 118.689 223.297 117.526 223.297 116.166V101.623C223.297 101.172 223.459 100.785 223.784 100.461C224.108 100.145 224.491 99.9876 224.933 99.9876H224.973C225.415 99.9876 225.798 100.145 226.122 100.461C226.446 100.785 226.609 101.172 226.609 101.623V116.166Z" fill="white"/>
<path d="M249.7 114.111C249.7 116.04 249.015 117.684 247.645 119.044C246.276 120.414 244.627 121.099 242.699 121.099C240.779 121.099 239.135 120.414 237.765 119.044C236.396 117.684 235.711 116.04 235.711 114.111V101.623C235.711 101.172 235.873 100.785 236.198 100.461C236.522 100.145 236.905 99.9876 237.346 99.9876H237.387C237.828 99.9876 238.211 100.145 238.536 100.461C238.86 100.785 239.022 101.172 239.022 101.623V114.111C239.022 115.129 239.378 115.999 240.09 116.72C240.811 117.432 241.68 117.788 242.699 117.788C243.726 117.788 244.6 117.432 245.321 116.72C246.032 115.999 246.388 115.129 246.388 114.111V101.623C246.388 101.172 246.55 100.785 246.875 100.461C247.199 100.145 247.582 99.9876 248.024 99.9876H248.064C248.506 99.9876 248.889 100.145 249.213 100.461C249.537 100.785 249.7 101.172 249.7 101.623V114.111Z" fill="white"/>
<path d="M265.181 101.65C265.181 102.101 265.019 102.488 264.695 102.812C264.379 103.128 263.996 103.285 263.546 103.285H260.248V119.463C260.248 119.914 260.09 120.297 259.775 120.612C259.451 120.937 259.063 121.099 258.613 121.099H258.586C258.135 121.099 257.748 120.937 257.423 120.612C257.108 120.297 256.95 119.914 256.95 119.463V103.285H253.653C253.211 103.285 252.828 103.128 252.504 102.812C252.179 102.488 252.017 102.101 252.017 101.65V101.623C252.017 101.172 252.179 100.785 252.504 100.461C252.828 100.145 253.211 99.9876 253.653 99.9876H263.546C263.996 99.9876 264.379 100.145 264.695 100.461C265.019 100.785 265.181 101.172 265.181 101.623V101.65Z" fill="white"/>
<path d="M269.567 99.9876C270.008 99.9876 270.391 100.145 270.716 100.461C271.04 100.785 271.202 101.172 271.202 101.623V119.463C271.202 119.923 271.04 120.306 270.716 120.612C270.391 120.937 270.008 121.099 269.567 121.099H269.526C269.085 121.099 268.702 120.937 268.377 120.612C268.053 120.306 267.891 119.923 267.891 119.463V101.623C267.891 101.172 268.053 100.785 268.377 100.461C268.702 100.145 269.085 99.9876 269.526 99.9876H269.567Z" fill="white"/>
<path d="M285.021 99.9876C287.932 99.9876 290.423 101.019 292.496 103.083C294.559 105.146 295.591 107.633 295.591 110.543C295.591 113.454 294.559 115.94 292.496 118.004C290.423 120.067 287.932 121.099 285.021 121.099C282.111 121.099 279.624 120.067 277.561 118.004C275.498 115.94 274.466 113.454 274.466 110.543C274.466 107.633 275.498 105.146 277.561 103.083C279.624 101.019 282.111 99.9876 285.021 99.9876ZM285.021 103.285C283.021 103.285 281.314 103.993 279.899 105.407C278.484 106.822 277.777 108.534 277.777 110.543C277.777 112.553 278.484 114.264 279.899 115.679C281.314 117.085 283.021 117.788 285.021 117.788C287.031 117.788 288.743 117.085 290.157 115.679C291.572 114.264 292.279 112.553 292.279 110.543C292.279 108.534 291.572 106.822 290.157 105.407C288.743 103.993 287.031 103.285 285.021 103.285Z" fill="white"/>
<path d="M312.437 119.463C312.437 119.923 312.275 120.306 311.951 120.612C311.626 120.937 311.244 121.099 310.802 121.099H310.761C310.32 121.099 309.937 120.937 309.613 120.612C309.288 120.306 309.126 119.923 309.126 119.463V106.975C309.126 105.957 308.77 105.087 308.058 104.367C307.338 103.646 306.464 103.285 305.436 103.285C304.418 103.285 303.549 103.646 302.828 104.367C302.116 105.087 301.76 105.957 301.76 106.975V119.463C301.76 119.923 301.598 120.306 301.274 120.612C300.949 120.937 300.566 121.099 300.125 121.099H300.084C299.643 121.099 299.26 120.937 298.935 120.612C298.611 120.306 298.449 119.923 298.449 119.463V106.975C298.449 105.047 299.134 103.398 300.503 102.028C301.873 100.668 303.517 99.9876 305.436 99.9876C307.365 99.9876 309.013 100.668 310.383 102.028C311.753 103.398 312.437 105.047 312.437 106.975V119.463Z" fill="white"/>
<path d="M321.378 103.258C320.603 103.258 319.945 103.529 319.404 104.069C318.864 104.61 318.593 105.268 318.593 106.043C318.593 106.962 319.012 107.66 319.85 108.137C320.22 108.345 321.306 108.71 323.108 109.232C324.648 109.692 325.775 110.246 326.486 110.895C327.55 111.859 328.081 113.215 328.081 114.963C328.081 116.657 327.478 118.103 326.27 119.301C325.072 120.5 323.63 121.099 321.945 121.099H316.796C316.354 121.099 315.971 120.937 315.647 120.612C315.323 120.288 315.16 119.905 315.16 119.463V119.382C315.16 118.941 315.323 118.558 315.647 118.234C315.971 117.909 316.354 117.747 316.796 117.747H322.08C322.846 117.747 323.504 117.477 324.054 116.936C324.594 116.395 324.865 115.738 324.865 114.963C324.865 114.062 324.446 113.359 323.608 112.854C323.211 112.62 322.121 112.224 320.337 111.665C318.796 111.16 317.674 110.588 316.972 109.949C315.908 108.993 315.377 107.691 315.377 106.043C315.377 104.349 315.976 102.902 317.174 101.704C318.373 100.506 319.819 99.9065 321.513 99.9065H325.148C325.599 99.9065 325.986 100.069 326.311 100.393C326.626 100.708 326.784 101.091 326.784 101.542V101.623C326.784 102.064 326.626 102.447 326.311 102.772C325.986 103.096 325.599 103.258 325.148 103.258H321.378Z" fill="white"/>
<rect x="40.1207" y="25.689" width="36.3296" height="13.8399" rx="6.91993" transform="rotate(-45 40.1207 25.689)" fill="white"/>
<rect x="66.4034" y="51.4648" width="27.7647" height="13.8399" rx="6.91993" transform="rotate(-45 66.4034 51.4648)" fill="white"/>
<rect x="53" y="38.5821" width="43.2496" height="13.8399" rx="6.91993" transform="rotate(-45 53 38.5821)" fill="white"/>
<path d="M2.28637 166.977H5.35852C5.56891 166.977 5.75139 167.052 5.90596 167.202C6.06054 167.357 6.13782 167.541 6.13782 167.756V167.769C6.13782 167.983 6.06054 168.168 5.90596 168.323C5.75139 168.473 5.56891 168.548 5.35852 168.548H2.28637V170.442C2.28637 170.656 2.36151 170.839 2.51179 170.989C2.66207 171.139 2.84455 171.214 3.05924 171.214H5.35852C5.56891 171.214 5.75139 171.292 5.90596 171.446C6.06054 171.601 6.13782 171.786 6.13782 172V172.013C6.13782 172.232 6.06054 172.415 5.90596 172.561C5.75139 172.715 5.56891 172.792 5.35852 172.792H3.05924C2.41089 172.792 1.857 172.563 1.39757 172.103C0.938148 171.644 0.708435 171.09 0.708435 170.442V165.083C0.708435 164.435 0.938148 163.881 1.39757 163.421C1.857 162.962 2.41089 162.732 3.05924 162.732H5.35852C5.56891 162.732 5.75139 162.81 5.90596 162.964C6.06054 163.11 6.13782 163.293 6.13782 163.512V163.524C6.13782 163.739 6.06054 163.924 5.90596 164.078C5.75139 164.233 5.56891 164.31 5.35852 164.31H3.05924C2.84455 164.31 2.66207 164.385 2.51179 164.536C2.36151 164.686 2.28637 164.868 2.28637 165.083V166.977Z" fill="white"/>
<path d="M17.2316 172.013C17.2316 172.232 17.1543 172.415 16.9997 172.561C16.8451 172.715 16.6626 172.792 16.4522 172.792H16.4329C16.2225 172.792 16.0401 172.715 15.8855 172.561C15.7309 172.415 15.6536 172.232 15.6536 172.013V170.062C15.6536 169.576 15.484 169.162 15.1448 168.819C14.8013 168.475 14.3848 168.303 13.8953 168.303C13.4102 168.303 12.9958 168.475 12.6523 168.819C12.3131 169.162 12.1435 169.576 12.1435 170.062V172.013C12.1435 172.232 12.0662 172.415 11.9117 172.561C11.7571 172.715 11.5746 172.792 11.3642 172.792H11.3449C11.1345 172.792 10.952 172.715 10.7974 172.561C10.6429 172.415 10.5656 172.232 10.5656 172.013V170.062C10.5656 168.928 10.9542 168.08 11.7313 167.518C10.9542 166.955 10.5656 166.107 10.5656 164.974V163.512C10.5656 163.297 10.6429 163.112 10.7974 162.958C10.952 162.807 11.1345 162.732 11.3449 162.732H11.3642C11.5746 162.732 11.7571 162.807 11.9117 162.958C12.0662 163.112 12.1435 163.297 12.1435 163.512V164.974C12.1435 165.459 12.3131 165.873 12.6523 166.217C12.9958 166.56 13.4102 166.732 13.8953 166.732C14.3848 166.732 14.8013 166.56 15.1448 166.217C15.484 165.873 15.6536 165.459 15.6536 164.974V163.512C15.6536 163.297 15.7309 163.112 15.8855 162.958C16.0401 162.807 16.2225 162.732 16.4329 162.732H16.4522C16.6626 162.732 16.8451 162.807 16.9997 162.958C17.1543 163.112 17.2316 163.297 17.2316 163.512V164.974C17.2316 166.107 16.843 166.955 16.0658 167.518C16.843 168.08 17.2316 168.928 17.2316 170.062V172.013Z" fill="white"/>
<path d="M23.5979 167.994H25.4399C25.9509 167.994 26.3867 167.814 26.7473 167.453C27.1037 167.097 27.2819 166.663 27.2819 166.152C27.2819 165.641 27.1037 165.205 26.7473 164.845C26.3867 164.484 25.9509 164.304 25.4399 164.304C24.929 164.304 24.4932 164.484 24.1325 164.845C23.7761 165.205 23.5979 165.641 23.5979 166.152V167.994ZM23.5979 169.572V172.013C23.5979 172.232 23.5206 172.415 23.3661 172.561C23.2115 172.715 23.029 172.792 22.8186 172.792H22.7993C22.5889 172.792 22.4064 172.715 22.2518 172.561C22.0973 172.415 22.02 172.232 22.02 172.013V166.152C22.02 165.208 22.3549 164.4 23.0247 163.731C23.6945 163.065 24.4996 162.732 25.4399 162.732C26.3845 162.732 27.1896 163.065 27.8551 163.731C28.5249 164.4 28.8599 165.208 28.8599 166.152C28.8599 167.093 28.5249 167.898 27.8551 168.567C27.1896 169.237 26.3845 169.572 25.4399 169.572H23.5979Z" fill="white"/>
<path d="M35.0266 166.977H38.0987C38.3091 166.977 38.4916 167.052 38.6461 167.202C38.8007 167.357 38.878 167.541 38.878 167.756V167.769C38.878 167.983 38.8007 168.168 38.6461 168.323C38.4916 168.473 38.3091 168.548 38.0987 168.548H35.0266V170.442C35.0266 170.656 35.1017 170.839 35.252 170.989C35.4023 171.139 35.5847 171.214 35.7994 171.214H38.0987C38.3091 171.214 38.4916 171.292 38.6461 171.446C38.8007 171.601 38.878 171.786 38.878 172V172.013C38.878 172.232 38.8007 172.415 38.6461 172.561C38.4916 172.715 38.3091 172.792 38.0987 172.792H35.7994C35.1511 172.792 34.5972 172.563 34.1378 172.103C33.6783 171.644 33.4486 171.09 33.4486 170.442V165.083C33.4486 164.435 33.6783 163.881 34.1378 163.421C34.5972 162.962 35.1511 162.732 35.7994 162.732H38.0987C38.3091 162.732 38.4916 162.81 38.6461 162.964C38.8007 163.11 38.878 163.293 38.878 163.512V163.524C38.878 163.739 38.8007 163.924 38.6461 164.078C38.4916 164.233 38.3091 164.31 38.0987 164.31H35.7994C35.5847 164.31 35.4023 164.385 35.252 164.536C35.1017 164.686 35.0266 164.868 35.0266 165.083V166.977Z" fill="white"/>
<path d="M48.1748 162.732C48.5999 162.732 49.0164 162.784 49.4243 162.887C49.8193 162.99 50.0168 163.241 50.0168 163.64V163.66C50.0168 163.913 49.9138 164.119 49.7077 164.278C49.5703 164.385 49.42 164.439 49.2568 164.439C49.1881 164.439 49.1173 164.43 49.0443 164.413C48.7566 164.34 48.4668 164.304 48.1748 164.304C47.2216 164.304 46.408 164.641 45.7339 165.315C45.0597 165.989 44.7227 166.805 44.7227 167.762C44.7227 168.72 45.0597 169.536 45.7339 170.21C46.408 170.88 47.2216 171.214 48.1748 171.214C48.4668 171.214 48.7566 171.18 49.0443 171.111C49.1173 171.094 49.1881 171.086 49.2568 171.086C49.42 171.086 49.5703 171.139 49.7077 171.247C49.9138 171.401 50.0168 171.607 50.0168 171.865V171.878C50.0168 172.281 49.8193 172.535 49.4243 172.638C49.0164 172.741 48.5999 172.792 48.1748 172.792C46.788 172.792 45.6029 172.301 44.6196 171.318C43.6364 170.334 43.1447 169.149 43.1447 167.762C43.1447 166.375 43.6364 165.19 44.6196 164.207C45.6029 163.224 46.788 162.732 48.1748 162.732Z" fill="white"/>
<path d="M60.3634 163.524C60.3634 163.739 60.2862 163.924 60.1316 164.078C59.9813 164.229 59.7988 164.304 59.5841 164.304H58.0126V172.013C58.0126 172.228 57.9375 172.41 57.7872 172.561C57.6327 172.715 57.448 172.792 57.2333 172.792H57.2205C57.0058 172.792 56.8211 172.715 56.6666 172.561C56.5163 172.41 56.4411 172.228 56.4411 172.013V164.304H54.8697C54.6593 164.304 54.4768 164.229 54.3222 164.078C54.1676 163.924 54.0903 163.739 54.0903 163.524V163.512C54.0903 163.297 54.1676 163.112 54.3222 162.958C54.4768 162.807 54.6593 162.732 54.8697 162.732H59.5841C59.7988 162.732 59.9813 162.807 60.1316 162.958C60.2862 163.112 60.3634 163.297 60.3634 163.512V163.524Z" fill="white"/>
<path d="M78.7961 172.013C78.7961 172.232 78.7188 172.415 78.5642 172.561C78.4096 172.715 78.2271 172.792 78.0168 172.792H77.9974C77.787 172.792 77.6046 172.715 77.45 172.561C77.2954 172.415 77.2181 172.232 77.2181 172.013V166.062C77.2181 165.577 77.0485 165.162 76.7093 164.819C76.3658 164.475 75.9493 164.304 75.4599 164.304C74.9747 164.304 74.5603 164.475 74.2168 164.819C73.8776 165.162 73.708 165.577 73.708 166.062V172.013C73.708 172.232 73.6307 172.415 73.4762 172.561C73.3216 172.715 73.1391 172.792 72.9287 172.792H72.9094C72.699 172.792 72.5165 172.715 72.3619 172.561C72.2074 172.415 72.1301 172.232 72.1301 172.013V166.062C72.1301 165.143 72.4564 164.357 73.1091 163.705C73.7617 163.056 74.5453 162.732 75.4599 162.732C76.3787 162.732 77.1645 163.056 77.8171 163.705C78.4697 164.357 78.7961 165.143 78.7961 166.062V172.013Z" fill="white"/>
<path d="M88.4858 162.732C89.8726 162.732 91.0598 163.224 92.0474 164.207C93.0306 165.19 93.5223 166.375 93.5223 167.762C93.5223 169.149 93.0306 170.334 92.0474 171.318C91.0598 172.301 89.8726 172.792 88.4858 172.792C87.0989 172.792 85.9138 172.301 84.9306 171.318C83.9473 170.334 83.4557 169.149 83.4557 167.762C83.4557 166.375 83.9473 165.19 84.9306 164.207C85.9138 163.224 87.0989 162.732 88.4858 162.732ZM88.4858 164.304C87.5326 164.304 86.7189 164.641 86.0448 165.315C85.3707 165.989 85.0336 166.805 85.0336 167.762C85.0336 168.72 85.3707 169.536 86.0448 170.21C86.7189 170.88 87.5326 171.214 88.4858 171.214C89.4433 171.214 90.2591 170.88 90.9332 170.21C91.6073 169.536 91.9443 168.72 91.9443 167.762C91.9443 166.805 91.6073 165.989 90.9332 165.315C90.2591 164.641 89.4433 164.304 88.4858 164.304Z" fill="white"/>
<path d="M104.004 163.524C104.004 163.739 103.927 163.924 103.772 164.078C103.622 164.229 103.44 164.304 103.225 164.304H101.653V172.013C101.653 172.228 101.578 172.41 101.428 172.561C101.273 172.715 101.089 172.792 100.874 172.792H100.861C100.646 172.792 100.462 172.715 100.307 172.561C100.157 172.41 100.082 172.228 100.082 172.013V164.304H98.5104C98.3 164.304 98.1175 164.229 97.9629 164.078C97.8083 163.924 97.731 163.739 97.731 163.524V163.512C97.731 163.297 97.8083 163.112 97.9629 162.958C98.1175 162.807 98.3 162.732 98.5104 162.732H103.225C103.44 162.732 103.622 162.807 103.772 162.958C103.927 163.112 104.004 163.297 104.004 163.512V163.524Z" fill="white"/>
<path d="M109.198 162.732C109.409 162.732 109.591 162.807 109.746 162.958C109.9 163.112 109.978 163.297 109.978 163.512V166.977H113.546V163.512C113.546 163.297 113.623 163.112 113.778 162.958C113.932 162.807 114.115 162.732 114.325 162.732H114.344C114.555 162.732 114.737 162.807 114.892 162.958C115.046 163.112 115.124 163.297 115.124 163.512V172.013C115.124 172.232 115.046 172.415 114.892 172.561C114.737 172.715 114.555 172.792 114.344 172.792H114.325C114.115 172.792 113.932 172.715 113.778 172.561C113.623 172.415 113.546 172.232 113.546 172.013V168.548H109.978V172.013C109.978 172.232 109.9 172.415 109.746 172.561C109.591 172.715 109.409 172.792 109.198 172.792H109.179C108.969 172.792 108.786 172.715 108.632 172.561C108.477 172.415 108.4 172.232 108.4 172.013V163.512C108.4 163.297 108.477 163.112 108.632 162.958C108.786 162.807 108.969 162.732 109.179 162.732H109.198Z" fill="white"/>
<path d="M120.962 162.732C121.172 162.732 121.355 162.807 121.509 162.958C121.664 163.112 121.741 163.297 121.741 163.512V172.013C121.741 172.232 121.664 172.415 121.509 172.561C121.355 172.715 121.172 172.792 120.962 172.792H120.943C120.732 172.792 120.55 172.715 120.395 172.561C120.241 172.415 120.163 172.232 120.163 172.013V163.512C120.163 163.297 120.241 163.112 120.395 162.958C120.55 162.807 120.732 162.732 120.943 162.732H120.962Z" fill="white"/>
<path d="M133.453 172.013C133.453 172.232 133.376 172.415 133.221 172.561C133.067 172.715 132.884 172.792 132.674 172.792H132.655C132.444 172.792 132.262 172.715 132.107 172.561C131.953 172.415 131.875 172.232 131.875 172.013V166.062C131.875 165.577 131.706 165.162 131.366 164.819C131.023 164.475 130.606 164.304 130.117 164.304C129.632 164.304 129.217 164.475 128.874 164.819C128.535 165.162 128.365 165.577 128.365 166.062V172.013C128.365 172.232 128.288 172.415 128.133 172.561C127.979 172.715 127.796 172.792 127.586 172.792H127.567C127.356 172.792 127.174 172.715 127.019 172.561C126.865 172.415 126.787 172.232 126.787 172.013V166.062C126.787 165.143 127.114 164.357 127.766 163.705C128.419 163.056 129.202 162.732 130.117 162.732C131.036 162.732 131.822 163.056 132.474 163.705C133.127 164.357 133.453 165.143 133.453 166.062V172.013Z" fill="white"/>
<path d="M143.143 162.732C144.616 162.732 145.85 163.273 146.846 164.355C146.988 164.51 147.059 164.686 147.059 164.883C147.059 164.913 147.057 164.941 147.052 164.967C147.022 165.203 146.917 165.384 146.737 165.508L146.724 165.521C146.582 165.624 146.432 165.676 146.273 165.676C146.243 165.676 146.213 165.673 146.183 165.669C145.99 165.652 145.824 165.568 145.687 165.418C145.004 164.675 144.156 164.304 143.143 164.304C142.19 164.304 141.376 164.641 140.702 165.315C140.028 165.989 139.691 166.805 139.691 167.762C139.691 168.72 140.028 169.536 140.702 170.21C141.376 170.88 142.19 171.214 143.143 171.214C143.997 171.214 144.747 170.938 145.391 170.384C146.03 169.834 146.406 169.222 146.518 168.548H143.304C143.089 168.548 142.905 168.471 142.75 168.316C142.6 168.166 142.525 167.983 142.525 167.769V167.756C142.525 167.541 142.6 167.357 142.75 167.202C142.905 167.052 143.089 166.977 143.304 166.977H147.394C147.608 166.977 147.793 167.052 147.948 167.202C148.098 167.357 148.175 167.541 148.179 167.756V167.762C148.179 169.149 147.688 170.334 146.705 171.318C145.717 172.301 144.53 172.792 143.143 172.792C141.756 172.792 140.571 172.301 139.588 171.318C138.604 170.334 138.113 169.149 138.113 167.762C138.113 166.375 138.604 165.19 139.588 164.207C140.571 163.224 141.756 162.732 143.143 162.732Z" fill="white"/>
<path d="M161.852 170.442C161.852 170.656 161.928 170.839 162.078 170.989C162.228 171.139 162.411 171.214 162.625 171.214H164.5C164.714 171.214 164.899 171.292 165.053 171.446C165.208 171.601 165.285 171.786 165.285 172V172.013C165.285 172.232 165.208 172.415 165.053 172.561C164.899 172.715 164.714 172.792 164.5 172.792H162.625C161.977 172.792 161.423 172.563 160.964 172.103C160.504 171.644 160.275 171.09 160.275 170.442V163.512C160.275 163.297 160.352 163.112 160.506 162.958C160.661 162.807 160.843 162.732 161.054 162.732H161.073C161.284 162.732 161.466 162.807 161.621 162.958C161.775 163.112 161.852 163.297 161.852 163.512V170.442Z" fill="white"/>
<path d="M171.066 166.977H174.138C174.348 166.977 174.531 167.052 174.685 167.202C174.84 167.357 174.917 167.541 174.917 167.756V167.769C174.917 167.983 174.84 168.168 174.685 168.323C174.531 168.473 174.348 168.548 174.138 168.548H171.066V170.442C171.066 170.656 171.141 170.839 171.291 170.989C171.441 171.139 171.624 171.214 171.838 171.214H174.138C174.348 171.214 174.531 171.292 174.685 171.446C174.84 171.601 174.917 171.786 174.917 172V172.013C174.917 172.232 174.84 172.415 174.685 172.561C174.531 172.715 174.348 172.792 174.138 172.792H171.838C171.19 172.792 170.636 172.563 170.177 172.103C169.717 171.644 169.488 171.09 169.488 170.442V165.083C169.488 164.435 169.717 163.881 170.177 163.421C170.636 162.962 171.19 162.732 171.838 162.732H174.138C174.348 162.732 174.531 162.81 174.685 162.964C174.84 163.11 174.917 163.293 174.917 163.512V163.524C174.917 163.739 174.84 163.924 174.685 164.078C174.531 164.233 174.348 164.31 174.138 164.31H171.838C171.624 164.31 171.441 164.385 171.291 164.536C171.141 164.686 171.066 164.868 171.066 165.083V166.977Z" fill="white"/>
<path d="M182.114 164.291C181.745 164.291 181.431 164.42 181.174 164.677C180.916 164.935 180.787 165.248 180.787 165.618C180.787 166.056 180.987 166.388 181.386 166.616C181.562 166.715 182.08 166.889 182.939 167.138C183.673 167.357 184.21 167.621 184.549 167.93C185.055 168.389 185.309 169.035 185.309 169.868C185.309 170.676 185.021 171.365 184.446 171.936C183.875 172.507 183.188 172.792 182.385 172.792H179.931C179.72 172.792 179.538 172.715 179.383 172.561C179.229 172.406 179.152 172.223 179.152 172.013V171.974C179.152 171.764 179.229 171.582 179.383 171.427C179.538 171.272 179.72 171.195 179.931 171.195H182.449C182.814 171.195 183.127 171.066 183.389 170.809C183.647 170.551 183.776 170.238 183.776 169.868C183.776 169.439 183.576 169.104 183.177 168.864C182.988 168.752 182.468 168.563 181.618 168.297C180.884 168.056 180.349 167.784 180.015 167.479C179.508 167.024 179.255 166.403 179.255 165.618C179.255 164.81 179.54 164.121 180.111 163.55C180.682 162.979 181.371 162.694 182.179 162.694H183.911C184.126 162.694 184.31 162.771 184.465 162.925C184.615 163.076 184.69 163.258 184.69 163.473V163.512C184.69 163.722 184.615 163.904 184.465 164.059C184.31 164.214 184.126 164.291 183.911 164.291H182.114Z" fill="white"/>
<path d="M192.603 164.291C192.233 164.291 191.92 164.42 191.662 164.677C191.405 164.935 191.276 165.248 191.276 165.618C191.276 166.056 191.475 166.388 191.875 166.616C192.051 166.715 192.568 166.889 193.427 167.138C194.161 167.357 194.698 167.621 195.037 167.93C195.544 168.389 195.797 169.035 195.797 169.868C195.797 170.676 195.509 171.365 194.934 171.936C194.363 172.507 193.676 172.792 192.873 172.792H190.419C190.209 172.792 190.026 172.715 189.872 172.561C189.717 172.406 189.64 172.223 189.64 172.013V171.974C189.64 171.764 189.717 171.582 189.872 171.427C190.026 171.272 190.209 171.195 190.419 171.195H192.937C193.302 171.195 193.616 171.066 193.878 170.809C194.135 170.551 194.264 170.238 194.264 169.868C194.264 169.439 194.065 169.104 193.665 168.864C193.476 168.752 192.957 168.563 192.107 168.297C191.372 168.056 190.838 167.784 190.503 167.479C189.996 167.024 189.743 166.403 189.743 165.618C189.743 164.81 190.028 164.121 190.599 163.55C191.171 162.979 191.86 162.694 192.667 162.694H194.399C194.614 162.694 194.799 162.771 194.953 162.925C195.104 163.076 195.179 163.258 195.179 163.473V163.512C195.179 163.722 195.104 163.904 194.953 164.059C194.799 164.214 194.614 164.291 194.399 164.291H192.603Z" fill="white"/>
<path d="M213.579 163.524C213.579 163.739 213.502 163.924 213.347 164.078C213.197 164.229 213.015 164.304 212.8 164.304H211.228V172.013C211.228 172.228 211.153 172.41 211.003 172.561C210.848 172.715 210.664 172.792 210.449 172.792H210.436C210.221 172.792 210.037 172.715 209.882 172.561C209.732 172.41 209.657 172.228 209.657 172.013V164.304H208.085C207.875 164.304 207.692 164.229 207.538 164.078C207.383 163.924 207.306 163.739 207.306 163.524V163.512C207.306 163.297 207.383 163.112 207.538 162.958C207.692 162.807 207.875 162.732 208.085 162.732H212.8C213.015 162.732 213.197 162.807 213.347 162.958C213.502 163.112 213.579 163.297 213.579 163.512V163.524Z" fill="white"/>
<path d="M218.773 162.732C218.984 162.732 219.166 162.807 219.321 162.958C219.475 163.112 219.553 163.297 219.553 163.512V166.977H223.121V163.512C223.121 163.297 223.198 163.112 223.353 162.958C223.507 162.807 223.69 162.732 223.9 162.732H223.919C224.13 162.732 224.312 162.807 224.467 162.958C224.621 163.112 224.699 163.297 224.699 163.512V172.013C224.699 172.232 224.621 172.415 224.467 172.561C224.312 172.715 224.13 172.792 223.919 172.792H223.9C223.69 172.792 223.507 172.715 223.353 172.561C223.198 172.415 223.121 172.232 223.121 172.013V168.548H219.553V172.013C219.553 172.232 219.475 172.415 219.321 172.561C219.166 172.715 218.984 172.792 218.773 172.792H218.754C218.544 172.792 218.361 172.715 218.207 172.561C218.052 172.415 217.975 172.232 217.975 172.013V163.512C217.975 163.297 218.052 163.112 218.207 162.958C218.361 162.807 218.544 162.732 218.754 162.732H218.773Z" fill="white"/>
<path d="M236.211 172.013C236.211 172.232 236.134 172.415 235.979 172.561C235.825 172.715 235.642 172.792 235.432 172.792H235.412C235.202 172.792 235.019 172.715 234.865 172.561C234.71 172.415 234.633 172.232 234.633 172.013V169.141H231.123V172.013C231.123 172.232 231.046 172.415 230.891 172.561C230.737 172.715 230.554 172.792 230.344 172.792H230.324C230.114 172.792 229.931 172.715 229.777 172.561C229.622 172.415 229.545 172.232 229.545 172.013V166.062C229.545 165.143 229.871 164.357 230.524 163.705C231.177 163.056 231.96 162.732 232.875 162.732C233.794 162.732 234.579 163.056 235.232 163.705C235.885 164.357 236.211 165.143 236.211 166.062V172.013ZM234.633 167.569V166.062C234.633 165.577 234.463 165.162 234.124 164.819C233.781 164.475 233.364 164.304 232.875 164.304C232.39 164.304 231.975 164.475 231.632 164.819C231.293 165.162 231.123 165.577 231.123 166.062V167.569H234.633Z" fill="white"/>
<path d="M247.73 172.013C247.73 172.232 247.653 172.415 247.498 172.561C247.343 172.715 247.161 172.792 246.951 172.792H246.931C246.721 172.792 246.538 172.715 246.384 172.561C246.229 172.415 246.152 172.232 246.152 172.013V166.062C246.152 165.577 245.982 165.162 245.643 164.819C245.3 164.475 244.883 164.304 244.394 164.304C243.908 164.304 243.494 164.475 243.151 164.819C242.811 165.162 242.642 165.577 242.642 166.062V172.013C242.642 172.232 242.564 172.415 242.41 172.561C242.255 172.715 242.073 172.792 241.862 172.792H241.843C241.633 172.792 241.45 172.715 241.296 172.561C241.141 172.415 241.064 172.232 241.064 172.013V166.062C241.064 165.143 241.39 164.357 242.043 163.705C242.695 163.056 243.479 162.732 244.394 162.732C245.312 162.732 246.098 163.056 246.751 163.705C247.403 164.357 247.73 165.143 247.73 166.062V172.013Z" fill="white"/>
<path d="M261.532 167.994H263.374C263.885 167.994 264.32 167.814 264.681 167.453C265.037 167.097 265.216 166.663 265.216 166.152C265.216 165.641 265.037 165.205 264.681 164.845C264.32 164.484 263.885 164.304 263.374 164.304C262.863 164.304 262.427 164.484 262.066 164.845C261.71 165.205 261.532 165.641 261.532 166.152V167.994ZM261.532 169.572V172.013C261.532 172.232 261.454 172.415 261.3 172.561C261.145 172.715 260.963 172.792 260.752 172.792H260.733C260.523 172.792 260.34 172.715 260.186 172.561C260.031 172.415 259.954 172.232 259.954 172.013V166.152C259.954 165.208 260.289 164.4 260.958 163.731C261.628 163.065 262.433 162.732 263.374 162.732C264.318 162.732 265.123 163.065 265.789 163.731C266.459 164.4 266.794 165.208 266.794 166.152C266.794 167.093 266.459 167.898 265.789 168.567C265.123 169.237 264.318 169.572 263.374 169.572H261.532Z" fill="white"/>
<path d="M274.731 167.601C275.187 167.601 275.575 167.442 275.897 167.125C276.219 166.803 276.38 166.414 276.38 165.959C276.38 165.5 276.219 165.109 275.897 164.787C275.575 164.469 275.187 164.31 274.731 164.31H273.991C273.669 164.31 273.418 164.398 273.237 164.574C273.096 164.716 273.005 164.883 272.967 165.077C272.958 165.124 272.954 165.199 272.954 165.302V167.601H274.731ZM276.38 170.822C276.38 170.366 276.219 169.978 275.897 169.656C275.605 169.36 275.257 169.201 274.854 169.179H272.954V172.013C272.954 172.228 272.879 172.41 272.728 172.561C272.574 172.715 272.389 172.792 272.175 172.792H272.162C271.943 172.792 271.76 172.715 271.614 172.561C271.46 172.415 271.382 172.232 271.382 172.013V165.244C271.382 164.553 271.627 163.962 272.117 163.473C272.61 162.979 273.203 162.732 273.894 162.732H274.731C275.62 162.732 276.378 163.048 277.005 163.679C277.636 164.31 277.952 165.07 277.952 165.959C277.952 166.843 277.636 167.601 277.005 168.232L276.857 168.387L277.011 168.548C277.638 169.175 277.952 169.933 277.952 170.822V172.013C277.952 172.232 277.874 172.415 277.72 172.561C277.565 172.715 277.383 172.792 277.172 172.792H277.16C276.949 172.792 276.767 172.715 276.612 172.561C276.458 172.415 276.38 172.232 276.38 172.013V170.822Z" fill="white"/>
<path d="M284.054 166.977H287.126C287.337 166.977 287.519 167.052 287.674 167.202C287.828 167.357 287.905 167.541 287.905 167.756V167.769C287.905 167.983 287.828 168.168 287.674 168.323C287.519 168.473 287.337 168.548 287.126 168.548H284.054V170.442C284.054 170.656 284.129 170.839 284.279 170.989C284.43 171.139 284.612 171.214 284.827 171.214H287.126C287.337 171.214 287.519 171.292 287.674 171.446C287.828 171.601 287.905 171.786 287.905 172V172.013C287.905 172.232 287.828 172.415 287.674 172.561C287.519 172.715 287.337 172.792 287.126 172.792H284.827C284.179 172.792 283.625 172.563 283.165 172.103C282.706 171.644 282.476 171.09 282.476 170.442V165.083C282.476 164.435 282.706 163.881 283.165 163.421C283.625 162.962 284.179 162.732 284.827 162.732H287.126C287.337 162.732 287.519 162.81 287.674 162.964C287.828 163.11 287.905 163.293 287.905 163.512V163.524C287.905 163.739 287.828 163.924 287.674 164.078C287.519 164.233 287.337 164.31 287.126 164.31H284.827C284.612 164.31 284.43 164.385 284.279 164.536C284.129 164.686 284.054 164.868 284.054 165.083V166.977Z" fill="white"/>
<path d="M293.976 166.977H296.661C296.872 166.977 297.054 167.052 297.209 167.202C297.363 167.357 297.441 167.541 297.441 167.756V167.769C297.441 167.988 297.363 168.17 297.209 168.316C297.054 168.471 296.872 168.548 296.661 168.548H293.976V172.013C293.976 172.232 293.898 172.415 293.744 172.561C293.589 172.715 293.407 172.792 293.196 172.792H293.177C292.967 172.792 292.784 172.715 292.629 172.561C292.475 172.415 292.398 172.232 292.398 172.013V165.083C292.398 164.435 292.627 163.881 293.087 163.421C293.546 162.962 294.1 162.732 294.748 162.732H296.726C296.936 162.732 297.119 162.807 297.273 162.958C297.428 163.112 297.505 163.297 297.505 163.512V163.524C297.505 163.739 297.428 163.924 297.273 164.078C297.119 164.229 296.936 164.304 296.726 164.304H294.748C294.534 164.304 294.351 164.379 294.201 164.529C294.051 164.679 293.976 164.864 293.976 165.083V166.977Z" fill="white"/>
<path d="M303.421 166.977H306.493C306.703 166.977 306.886 167.052 307.04 167.202C307.195 167.357 307.272 167.541 307.272 167.756V167.769C307.272 167.983 307.195 168.168 307.04 168.323C306.886 168.473 306.703 168.548 306.493 168.548H303.421V170.442C303.421 170.656 303.496 170.839 303.646 170.989C303.796 171.139 303.979 171.214 304.193 171.214H306.493C306.703 171.214 306.886 171.292 307.04 171.446C307.195 171.601 307.272 171.786 307.272 172V172.013C307.272 172.232 307.195 172.415 307.04 172.561C306.886 172.715 306.703 172.792 306.493 172.792H304.193C303.545 172.792 302.991 172.563 302.532 172.103C302.072 171.644 301.843 171.09 301.843 170.442V165.083C301.843 164.435 302.072 163.881 302.532 163.421C302.991 162.962 303.545 162.732 304.193 162.732H306.493C306.703 162.732 306.886 162.81 307.04 162.964C307.195 163.11 307.272 163.293 307.272 163.512V163.524C307.272 163.739 307.195 163.924 307.04 164.078C306.886 164.233 306.703 164.31 306.493 164.31H304.193C303.979 164.31 303.796 164.385 303.646 164.536C303.496 164.686 303.421 164.868 303.421 165.083V166.977Z" fill="white"/>
<path d="M316.569 162.732C316.994 162.732 317.41 162.784 317.818 162.887C318.213 162.99 318.411 163.241 318.411 163.64V163.66C318.411 163.913 318.308 164.119 318.102 164.278C317.964 164.385 317.814 164.439 317.651 164.439C317.582 164.439 317.511 164.43 317.438 164.413C317.151 164.34 316.861 164.304 316.569 164.304C315.616 164.304 314.802 164.641 314.128 165.315C313.454 165.989 313.117 166.805 313.117 167.762C313.117 168.72 313.454 169.536 314.128 170.21C314.802 170.88 315.616 171.214 316.569 171.214C316.861 171.214 317.151 171.18 317.438 171.111C317.511 171.094 317.582 171.086 317.651 171.086C317.814 171.086 317.964 171.139 318.102 171.247C318.308 171.401 318.411 171.607 318.411 171.865V171.878C318.411 172.281 318.213 172.535 317.818 172.638C317.41 172.741 316.994 172.792 316.569 172.792C315.182 172.792 313.997 172.301 313.014 171.318C312.03 170.334 311.539 169.149 311.539 167.762C311.539 166.375 312.03 165.19 313.014 164.207C313.997 163.224 315.182 162.732 316.569 162.732Z" fill="white"/>
<path d="M328.757 163.524C328.757 163.739 328.68 163.924 328.526 164.078C328.375 164.229 328.193 164.304 327.978 164.304H326.407V172.013C326.407 172.228 326.331 172.41 326.181 172.561C326.027 172.715 325.842 172.792 325.627 172.792H325.614C325.4 172.792 325.215 172.715 325.061 172.561C324.91 172.41 324.835 172.228 324.835 172.013V164.304H323.264C323.053 164.304 322.871 164.229 322.716 164.078C322.562 163.924 322.484 163.739 322.484 163.524V163.512C322.484 163.297 322.562 163.112 322.716 162.958C322.871 162.807 323.053 162.732 323.264 162.732H327.978C328.193 162.732 328.375 162.807 328.526 162.958C328.68 163.112 328.757 163.297 328.757 163.512V163.524Z" fill="white"/>
<line x1="196.535" y1="143.274" x2="328.438" y2="143.274" stroke="white"/>
<line y1="143.274" x2="131.903" y2="143.274" stroke="white"/>
<rect x="155.645" y="143.774" width="11.8712" height="11.8712" rx="1" transform="rotate(-45 155.645 143.774)" fill="white"/>
<rect x="175.43" y="143.774" width="7.91416" height="7.91416" rx="1" transform="rotate(-45 175.43 143.774)" fill="white"/>
<rect x="142.455" y="143.774" width="7.91416" height="7.91416" rx="1" transform="rotate(-45 142.455 143.774)" fill="white"/>
</svg>
